<?xml version="1.0" encoding="UTF-8"?>
<svg xmlns="http://www.w3.org/2000/svg" xmlns:xlink="http://www.w3.org/1999/xlink" xmlns:svgjs="http://svgjs.com/svgjs" version="1.1" width="512" height="512" x="0" y="0" viewBox="0 0 512.001 512.001" style="enable-background:new 0 0 512 512" xml:space="preserve">
  <g>
    <g>
      <path d="m430.01 48.46c0-7.587-6.173-13.76-13.76-13.76h-.002-134.717v-13.88c0-11.48-9.336-20.82-20.811-20.82h-14.649c-11.48 0-20.82 9.34-20.82 20.82v13.88h-129.5c-6.258-.223-13.805 5.691-13.76 13.76v373.29c0 7.587 6.173 13.76 13.76 13.76h53.072l-11.173 67.77c-.674 4.087 2.094 7.946 6.181 8.62.413.067.823.101 1.229.101 3.605 0 6.785-2.607 7.392-6.281l11.575-70.21h138.27l11.574 70.21c.605 3.675 3.786 6.281 7.392 6.281.405 0 .815-.033 1.229-.101 4.087-.674 6.854-4.533 6.181-8.62l-11.172-67.771h26.797l11.574 70.21c.605 3.675 3.786 6.281 7.392 6.281.405 0 .815-.033 1.229-.101 4.087-.674 6.854-4.533 6.181-8.62l-11.172-67.771h56.75.002c7.587 0 13.76-6.173 13.76-13.76v-.001s0-.001 0-.001v-314.435c0-4.143-3.357-7.5-7.5-7.5s-7.5 3.357-7.5 7.5v127.729h-18.893c-6.731 0-12.207 5.476-12.207 12.207v21.973h-15.934c-6.731 0-12.207 5.476-12.207 12.207v24.003h-34.1v-64.85c-.141-3.712-3.465-8.269-9.297-7.49-52.635 0-85.474-25.946-95.462-35.151 21.39-45.928 83.297-54.74 129.686-52.149 8.819 0 15.995-7.176 15.995-15.995v-14.472c0-4.143-3.357-7.5-7.5-7.5s-7.5 3.357-7.5 7.5v14.472c0 .549-.446.995-.995.995h-24.927v-81.09h93.34v22.721c0 4.143 3.357 7.5 7.5 7.5s7.5-3.357 7.5-7.5v-23.959c-.003 0-.003-.001-.003-.002zm-189.759-27.64c0-3.209 2.611-5.82 5.82-5.82h14.649c3.204 0 5.811 2.611 5.811 5.82v13.88h-26.28zm-143.26 284.35h23.747l36.779 9.845-14.213 6.995h-46.313zm0 31.84h48.06c1.072 1.19 34.121-16.263 35.433-16.58h41.302l-48.52 40.819c-6.422 5.398-14.573 8.371-22.954 8.371h-53.321zm82.732-31.58c-5.012-1.051-52.304-14.542-57.999-15.26h-24.733v-36.855c21.49-8.363 47.869-15.097 67.769 2.99l57.316 49.125zm-82.732 79.19h53.319c11.906 0 23.485-4.223 32.608-11.891l51.932-43.689v91.469h-137.859zm261.573-64.19c6.73 0 12.206-5.476 12.206-12.207v-24.003h15.934c6.731 0 12.207-5.476 12.207-12.207v-21.973h16.1v170.47h-165.161v-100.08zm-51.893-189.172c-37.12 3.593-84.552 18.938-103.644 60.962h-37.016c-.188 0-.341-.153-.341-.341v-25.726c0-4.143-3.357-7.5-7.5-7.5s-7.5 3.357-7.5 7.5v25.726c0 8.459 6.882 15.341 15.341 15.341h38.857c9.159 9.048 43.691 38.938 101.803 40.781v57.429h-61.546l-70.598-60.51c-25.673-21.709-53.14-16.6-77.535-7.355v-178.271l53.571 49.287c.068.063.108.155.108.25v21.459c0 4.143 3.357 7.5 7.5 7.5s7.5-3.357 7.5-7.5v-21.459c0-4.279-1.807-8.396-4.954-11.29l-52-47.841h197.953v81.558z" fill="#ff5d56" data-original="#000000"/>
      <path d="m195.136 455.451c-4.086-.668-7.946 2.094-8.62 6.181l-6.866 41.648c-.674 4.087 2.094 7.946 6.181 8.62.413.067.823.101 1.229.101 3.605 0 6.786-2.607 7.392-6.281l6.866-41.648c.673-4.088-2.095-7.947-6.182-8.621z" fill="#ff5d56" data-original="#000000"/>
      <path d="m371.649 198.38c2.413 0 4.783-1.163 6.231-3.316 2.311-3.438 1.397-8.099-2.04-10.409-40.841-28.474-91.447-13.747-113.754-.137-3.509 2.191-4.575 6.806-2.391 10.318 2.186 3.513 6.809 4.587 10.324 2.412.118-.073 10.847-6.645 26.734-10.767-.632 2.206-.978 4.532-.978 6.938 0 13.914 11.32 25.234 25.234 25.234s25.234-11.32 25.234-25.234c0-2.382-.339-4.686-.959-6.872 7.758 2.326 15.166 5.838 22.186 10.556 1.285.864 2.74 1.277 4.179 1.277zm-50.639 5.274c-5.644 0-10.234-4.591-10.234-10.234s4.591-10.234 10.234-10.234 10.234 4.591 10.234 10.234-4.59 10.234-10.234 10.234z" fill="#ff5d56" data-original="#000000"/>
    </g>
  </g>
</svg>
