<?xml version="1.0" encoding="UTF-8"?>
<svg xmlns="http://www.w3.org/2000/svg" xmlns:xlink="http://www.w3.org/1999/xlink" xmlns:svgjs="http://svgjs.com/svgjs" version="1.1" width="512" height="512" x="0" y="0" viewBox="0 0 512 512" style="enable-background:new 0 0 512 512" xml:space="preserve">
  <g>
    <g>
      <g>
        <path d="m238.244 0h-195.054c-9.649 0-17.5 7.851-17.5 17.5v312.327c0 4.142 3.357 7.5 7.5 7.5s7.5-3.358 7.5-7.5v-21.676l99.683-11.531c1.071 3.051 2.256 6.061 3.567 9.017l-103.25 90.041v-30.455c0-4.142-3.357-7.5-7.5-7.5s-7.5 3.358-7.5 7.5v129.277c0 9.649 7.851 17.5 17.5 17.5h195.054c9.649 0 17.5-7.851 17.5-17.5v-477c0-9.649-7.851-17.5-17.5-17.5zm-166.623 497 119.502-137.034c4.543 2.84 9.264 5.372 14.132 7.587l-8.85 129.447zm76.838-241c0-54.102 39.328-99.009 92.284-106.453v212.906c-52.959-7.443-92.284-52.341-92.284-106.453zm-107.769-139.678 103.25 90.041c-1.31 2.956-2.496 5.966-3.567 9.017l-99.683-11.531zm155.715-101.322 8.851 129.447c-4.868 2.215-9.589 4.747-14.132 7.587l-119.503-137.034zm44.339 2.5v116.925c-7.104.882-14.072 2.378-20.833 4.457l-8.471-123.882h26.804c1.379 0 2.5 1.122 2.5 2.5zm-197.554-2.5h8.55c.064.08.122.164.19.242l126.932 145.554c-4.698 3.812-9.143 7.984-13.284 12.509-5.507 6.017-10.348 12.513-14.5 19.381l-110.388-96.267v-78.919c0-1.378 1.121-2.5 2.5-2.5zm-2.5 278.052v-74.103l95.549 11.052c-1.833 8.472-2.78 17.18-2.78 25.999s.946 17.528 2.779 25.999zm0 201.448v-78.919l110.388-96.266c4.156 6.875 9.005 13.379 14.519 19.402 4.135 4.516 8.574 8.682 13.265 12.488l-127.084 145.728c-.019.022-.034.045-.053.067h-8.535c-1.379 0-2.5-1.122-2.5-2.5zm197.554 2.5h-26.804l8.47-123.881c6.762 2.079 13.729 3.574 20.834 4.457v116.924c0 1.378-1.121 2.5-2.5 2.5z" fill="#ff5d56" data-original="#000000"/>
        <path d="m468.81 0h-175.774c-9.649 0-17.5 7.851-17.5 17.5v176.94c0 9.649 7.851 17.5 17.5 17.5h106.396c4.143 0 7.5-3.358 7.5-7.5s-3.357-7.5-7.5-7.5h-36.066c-15.59-28.292-41.938-49.454-72.83-58.517v-120.923c0-1.378 1.121-2.5 2.5-2.5h175.774c1.379 0 2.5 1.122 2.5 2.5v176.94c0 1.378-1.121 2.5-2.5 2.5h-33.983c-4.143 0-7.5 3.358-7.5 7.5s3.357 7.5 7.5 7.5h33.983c9.649 0 17.5-7.851 17.5-17.5v-176.94c0-9.649-7.851-17.5-17.5-17.5zm-122.951 196.94h-52.823c-1.379 0-2.5-1.122-2.5-2.5v-40.285c22.619 7.675 42.168 22.821 55.323 42.785z" fill="#ff5d56" data-original="#000000"/>
        <path d="m468.81 233.79h-175.774c-9.649 0-17.5 7.851-17.5 17.5v243.21c0 9.649 7.851 17.5 17.5 17.5h175.774c9.649 0 17.5-7.851 17.5-17.5v-243.21c0-9.649-7.851-17.5-17.5-17.5zm2.5 260.71c0 1.378-1.121 2.5-2.5 2.5h-175.774c-1.379 0-2.5-1.122-2.5-2.5v-120.937c17.151-5.039 33.258-13.948 46.722-25.883 3.1-2.748 3.386-7.488.638-10.587s-7.489-3.385-10.587-.637c-10.707 9.491-23.313 16.801-36.772 21.379v-106.545c0-1.378 1.121-2.5 2.5-2.5h70.261c.159 2.406.244 4.821.244 7.21 0 19.32-5.203 38.282-15.046 54.837-2.117 3.561-.947 8.163 2.613 10.28 1.202.714 2.522 1.054 3.826 1.054 2.558 0 5.051-1.31 6.453-3.668 11.222-18.873 17.153-40.486 17.153-62.503 0-2.39-.079-4.802-.219-7.21h90.489c1.379 0 2.5 1.122 2.5 2.5v243.21z" fill="#ff5d56" data-original="#000000"/>
      </g>
    </g>
  </g>
</svg>
