<?xml version="1.0" encoding="UTF-8"?>
<svg xmlns="http://www.w3.org/2000/svg" xmlns:xlink="http://www.w3.org/1999/xlink" xmlns:svgjs="http://svgjs.com/svgjs" version="1.1" width="512" height="512" x="0" y="0" viewBox="0 0 512 512" style="enable-background:new 0 0 512 512" xml:space="preserve">
  <g>
    <g>
      <path d="m456.672 117.802c-25.909.375-50.761 23.697-49.6 50.205-1.073 19.702 6.16 34.542 17.203 44.09-79.747 38.671-119.731-30.176-155.581-97.388.605-1.892.826-3.872.678-5.82 24.32-6.214 45.013-29.092 40.06-66.156-15.005-61.874-102.878-54.946-105.295 10.356.453 29.788 15.112 47.472 33.389 54.282-21.374 29.674-41.651 102.696-84.578 113.418-23.023 8.671-49.432 7.528-71.947-2.369-.086-.462-.2-.897-.315-1.331 21.938-10.324 37.089-35.092 25.59-70.315-22.732-58.599-105.989-43.333-102.913 21.001 3.04 35.01 24.597 51.978 47.561 54.369.063.754.159 1.523.33 2.323 13.523 62.553 32.128 127.483 40.891 190.848.199 1.419.674 2.75 1.359 3.946-25.309 111.182 55.824 91.388 134.186 91.354 48.591-.84 97.524-2.13 145.987-5.874 48.701 2.041 49.704-55.881 44.069-90.8-.051-3.029-1.285-5.226-3.064-6.626-1.743-2.134-4.449-3.615-8.204-3.742-97.249-3.74-195.805 2.078-293.058-.979-6.766-55.439-19.598-111.007-29.3-165.988 45.455 18.978 103.123 4.707 131.324-37.278 13.209-17.513 22.987-36.933 33.895-55.255 2.288-3.837 4.612-7.582 6.998-11.193 8.061 12.133 15.466 24.727 23.098 37.243 31.011 55.861 75.262 93.187 142.185 71.992 1.813-.534 3.611-1.091 5.402-1.66-.025.193-.046.381-.064.565-2.733 18.47 2.003 37.606-3.034 55.993-1.674 9.173-3.531 18.525-6.471 27.39-3.668 10.266 12.573 15.846 15.947 5.429 9.14-32.887 26.156-66.583 23.424-101.244 1.571-1.187 2.798-2.518 3.749-3.929 22.585-.774 44.499-15.845 47.999-46.997 2.257-29.207-21.336-60.452-51.9-59.86zm-433.359 38.061c11.022-21.898 46.474-20.436 57.908.978l-.281-.778c10.937 18.808 2.905 43.725-20.152 47.533-26.073 6.192-48.244-24.317-37.475-47.733zm89.203 269.158c96.287 1.266 192.883-10.513 288.811.198 1.912 22.65 5.351 52.112-18.445 59.978-65.54 5.294-131.066-.524-196.447-3.737-19.538-1.555-54.715 6.628-67.169-10.969-5.598-9.412-6.334-23.611-6.719-35.365-.565-2.849-.315-6.416-.031-10.105zm108.703-370.743c.331-58.912 85.47-37.616 59.883 10.599-12.031 25.603-58.389 18.229-59.883-10.599zm261.943 119.095c-6.879 31.934-59.215 27.014-58.975-5.952-1.022-9.88 4.38-19.426 12.369-25.012 21.101-17.719 52.194 5.852 46.606 30.964z" fill="#ff5d56" data-original="#000000"/>
    </g>
  </g>
</svg>
