<?xml version="1.0" encoding="UTF-8"?>
<svg xmlns="http://www.w3.org/2000/svg" xmlns:xlink="http://www.w3.org/1999/xlink" xmlns:svgjs="http://svgjs.com/svgjs" version="1.1" width="512" height="512" x="0" y="0" viewBox="0 0 509.406 509.406" style="enable-background:new 0 0 512 512" xml:space="preserve">
  <g>
    <path d="m505.669 167.029c12.59-31.09-10.45-66.6-13.11-70.54-3.42-5.05-9.55-7.53-15.51-6.28-4.24.89-38.82 8.81-54.47 33.68-12.07-13.82-25.84-26.14-40.96-36.62-.47-12.98-4-45.11-26.78-61.33-27.32-19.46-67.2-5.28-71.66-3.6-5.7 2.15-9.53 7.54-9.7 13.63-.13 4.76-.49 47.08 26.83 66.53 17.052 12.153 40.267 11.952 60.58 6.95 8.84 5.82 17.11 12.28 24.74 19.3-18.22 3.94-32.89 13.48-35.35 15.14-5.05 3.41-7.53 9.54-6.28 15.5.98 4.66 10.44 45.91 41.53 58.51 17.366 7.025 36.79 3.327 53.73-4.09 7.73 25.334 10.004 51.774 7.38 76.91 0 .108-4.185-6.364-11.8-11.78-27.32-19.46-67.2-5.28-71.66-3.6-5.7 2.15-9.53 7.54-9.7 13.63-.13 4.76-.49 47.08 26.83 66.53 19.493 13.893 42.719 9.308 42.46 9.89-1.034 0-23.371 49.774-84.76 79.29l20.29-47.7c4.579-10.75-4.426-22.452-16.04-20.7l-53.46 8.07c-21.68-50.263-20.7-49.531-24.42-52.67 3.62-2.86 5.95-7.3 5.95-12.26 0-12.78-14.576-19.875-24.52-13.31-8.98 5.931-8.827 18.942-.75 25.5-3.801 3.178-2.798 2.426-24.5 52.74l-53.46-8.07c-11.577-1.746-20.634 9.916-16.04 20.7l20.29 47.7c-35.69-17.16-65.32-44.97-84.75-79.29 14.913 1.127 30.177-1.143 42.45-9.89 27.32-19.45 26.96-61.77 26.83-66.53-.17-6.09-4-11.48-9.7-13.63-2.69-1.01-18.22-6.56-36.12-6.56-19.444 0-36.033 6.415-47.34 21.95-2.616-25.065-.373-51.513 7.38-76.92 16.945 7.419 36.367 11.114 53.73 4.09 31.09-12.6 40.55-53.85 41.53-58.51 1.25-5.96-1.23-12.09-6.28-15.5-2.46-1.66-17.13-11.2-35.35-15.14 7.63-7.02 15.9-13.48 24.74-19.3 20.32 5.003 43.531 5.201 60.58-6.95 27.32-19.45 26.96-61.77 26.83-66.53-.17-6.09-4-11.48-9.7-13.63-21.953-8.243-51.934-10.446-71.66 3.6-22.78 16.22-26.31 48.35-26.78 61.33-15.12 10.48-28.89 22.8-40.96 36.62-15.65-24.87-50.23-32.79-54.47-33.68-5.97-1.25-12.09 1.23-15.51 6.28-13.208 19.497-22.204 48.095-13.11 70.54 7.37 18.2 24.42 28.99 38.75 35.09-19.611 60.82-12.447 128.549 21.58 184.32-14.35 3.5-31.69 10.85-41.78 26.28-18.35 28.06-2.6 67.35-.75 71.74 2.35 5.55 7.8 9.15 13.81 9.15 22.678 0 52.251-9.012 65.61-29.44 4.99-7.63 7.46-16.09 8.37-24.45 83.271 71.802 205.858 71.301 288.45 1.99 1.08 7.71 3.54 15.44 8.13 22.46 13.38 20.448 43.111 29.44 65.61 29.44 6.02 0 11.46-3.6 13.81-9.15 1.86-4.39 17.61-43.68-.75-71.74-9.58-14.64-25.66-22-39.54-25.71 34.457-56.119 41.531-124.1 21.93-184.89 16.7-7.113 31.987-18.4 38.75-35.09z" fill="#ff5d56" data-original="#000000"/>
  </g>
</svg>
