<?xml version="1.0" encoding="UTF-8"?>
<svg xmlns="http://www.w3.org/2000/svg" xmlns:xlink="http://www.w3.org/1999/xlink" xmlns:svgjs="http://svgjs.com/svgjs" version="1.1" width="512" height="512" x="0" y="0" viewBox="0 0 25 25" style="enable-background:new 0 0 512 512" xml:space="preserve" class="">
  <g>
    <g id="Layer_10" data-name="Layer 10">
      <path d="m22.38 16.74a.48.48 0 0 0 -.61 0 8.72 8.72 0 0 1 -4.77 1.36 8.94 8.94 0 0 1 -6.24-15.27.49.49 0 0 0 .08-.6.5.5 0 0 0 -.56-.23 10.71 10.71 0 0 0 2.81 21 10.6 10.6 0 0 0 9.4-5.68.49.49 0 0 0 -.11-.58zm-9.29 5.26a9.71 9.71 0 0 1 -4.27-18.38 9.94 9.94 0 0 0 8.18 15.48 9.72 9.72 0 0 0 3.6-.68 9.59 9.59 0 0 1 -7.51 3.58z" fill="#ff5d56" data-original="#000000" class=""/>
    </g>
  </g>
</svg>
