<?xml version="1.0" encoding="UTF-8"?>
<svg xmlns="http://www.w3.org/2000/svg" xmlns:xlink="http://www.w3.org/1999/xlink" xmlns:svgjs="http://svgjs.com/svgjs" version="1.1" width="512" height="512" x="0" y="0" viewBox="0 0 512.004 512.004" style="enable-background:new 0 0 512 512" xml:space="preserve">
  <g>
    <g>
      <path d="m461.285 96.48v-11.518c0-6.776-3.803-12.679-9.385-15.693v-20.345c0-8.902-7.242-16.145-16.145-16.145h-10.439c-8.902 0-16.145 7.242-16.145 16.145v20.345c-5.582 3.014-9.385 8.917-9.385 15.693v11.042c-3.75.415-6.667 3.591-6.667 7.451s2.917 7.036 6.667 7.451v302.721c0 .723.135 1.575.345 2.251l15.782 52.474c4.352 14.469 24.895 14.465 29.244 0l15.782-52.474c.207-.669.345-1.53.345-2.251v-68.246c0-4.143-3.357-7.5-7.5-7.5s-7.5 3.357-7.5 7.5v60.746h-31.498v-156.197h31.498v60.451c0 4.143 3.357 7.5 7.5 7.5s7.5-3.357 7.5-7.5c0-5.934 0-193.737 0-198.381 6.124 2.303 10.502 8.204 10.502 15.122v152.333c0 4.143 3.357 7.5 7.5 7.5s7.5-3.357 7.5-7.5v-152.333c.001-15.25-11.012-27.969-25.501-30.642zm-46.498-11.518c0-1.557 1.267-2.823 2.824-2.823h25.85c1.558 0 2.824 1.267 2.824 2.823v10.993h-31.498zm9.385-36.038c0-.631.514-1.145 1.145-1.145h10.439c.631 0 1.145.514 1.145 1.145v18.215h-12.729zm19.525 372.203-12.904 42.906c-.029.099-.057.148-.056.155-.094.05-.324.049-.388.017-.009-.012-.04-.067-.071-.173l-12.904-42.905zm-28.91-186.197v-123.975h31.498v123.975z" fill="#ff5d56" data-original="#000000"/>
      <path d="m293.901 193.516-44.016-30.962c-9.757-6.864-21.132-10.657-33.01-11.038-1.528-.055-48.776-.068-50.658 0-11.878.381-23.252 4.173-33.009 11.037l-44.015 30.962c-5.837 4.104-7.486 12.084-3.755 18.166l18.495 30.152c3.873 6.311 11.927 8.351 18.332 4.643l19.287-11.156c3.334 13.839 5.632 30.391 7.041 39.32-7.749 12.912-41.524 72.898-44.27 141.71-.169 4.224 1.413 8.393 4.339 11.438 2.963 3.084 6.949 4.782 11.225 4.782h54.16c4.143 0 7.5-3.357 7.5-7.5s-3.357-7.5-7.5-7.5h-54.16c-.06 0-.24 0-.407-.175-.179-.185-.171-.382-.168-.447 2.491-62.429 33.052-118.95 41.382-133.266h61.711c8.335 14.3 38.882 70.722 41.378 133.265.003.065.011.263-.168.448-.168.175-.348.175-.407.175h-54.16c-4.143 0-7.5 3.357-7.5 7.5s3.357 7.5 7.5 7.5h54.16c4.274 0 8.26-1.698 11.223-4.781 2.927-3.045 4.509-7.214 4.341-11.438-2.746-68.813-36.521-128.8-44.271-141.711 1.394-8.826 3.699-25.447 7.04-39.32l19.286 11.155c6.407 3.708 14.462 1.671 18.333-4.643l18.495-30.151c3.731-6.08 2.082-14.06-3.754-18.165zm-84.328-27.037c-6.373 16.43-29.678 16.438-36.055 0zm57.54 66.305-21.647-12.521c-6.771-3.916-15.387-.333-17.409 7.21-3.706 13.845-6.224 30.88-7.813 41.211h-57.394c-1.97-13.011-4.405-28.482-7.813-41.21-2.019-7.545-10.642-11.125-17.408-7.211l-21.648 12.521-17.043-27.784 42.901-30.179c4.978-3.502 10.516-5.938 16.35-7.239 3.641 15.043 17.211 26.253 33.358 26.253s29.717-11.209 33.358-26.253c5.834 1.301 11.372 3.738 16.35 7.24l42.901 30.178zm18.154-27.003.004.003v.001z" fill="#ff5d56" data-original="#000000"/>
      <path d="m306.948 117.58c0-4.143-3.357-7.5-7.5-7.5s-7.5 3.357-7.5 7.5v2.375h-200.802v-2.375c0-4.143-3.357-7.5-7.5-7.5s-7.5 3.357-7.5 7.5v19.75c0 4.143 3.357 7.5 7.5 7.5s7.5-3.357 7.5-7.5v-2.375h200.803v2.375c0 4.143 3.357 7.5 7.5 7.5s7.5-3.357 7.5-7.5v-19.75z" fill="#ff5d56" data-original="#000000"/>
      <path d="m332.162 166.479c4.143 0 7.5-3.357 7.5-7.5s-3.357-7.5-7.5-7.5h-19.75c-4.143 0-7.5 3.357-7.5 7.5s3.357 7.5 7.5 7.5h2.375v251.093h-2.375c-4.143 0-7.5 3.357-7.5 7.5s3.357 7.5 7.5 7.5h19.75c4.143 0 7.5-3.357 7.5-7.5s-3.357-7.5-7.5-7.5h-2.375v-251.093z" fill="#ff5d56" data-original="#000000"/>
      <path d="m362.377 22.527h-20.238v-15.027c0-4.143-3.357-7.5-7.5-7.5s-7.5 3.357-7.5 7.5v15.027h-22.455v-15.027c0-4.143-3.357-7.5-7.5-7.5s-7.5 3.357-7.5 7.5v15.027h-22.455v-15.027c0-4.143-3.357-7.5-7.5-7.5s-7.5 3.357-7.5 7.5v15.027h-22.454v-15.027c0-4.143-3.357-7.5-7.5-7.5s-7.5 3.357-7.5 7.5v15.027h-22.455v-15.027c0-4.143-3.357-7.5-7.5-7.5s-7.5 3.357-7.5 7.5v15.027h-22.455v-15.027c0-4.143-3.357-7.5-7.5-7.5s-7.5 3.357-7.5 7.5v15.027h-22.455v-15.027c0-4.143-3.357-7.5-7.5-7.5s-7.5 3.357-7.5 7.5v15.027h-22.455v-15.027c0-4.143-3.357-7.5-7.5-7.5s-7.5 3.357-7.5 7.5v15.027h-20.238c-10.752 0-19.5 8.748-19.5 19.5v450.477c0 10.752 8.748 19.5 19.5 19.5h317.66c10.752 0 19.5-8.748 19.5-19.5 0-4.01 0-446.467 0-450.477 0-10.752-8.748-19.5-19.5-19.5zm-322.16 19.5c0-2.439 2.061-4.5 4.5-4.5h20.238v14.75c0 4.143 3.357 7.5 7.5 7.5s7.5-3.357 7.5-7.5v-14.75h22.454v14.75c0 4.143 3.357 7.5 7.5 7.5s7.5-3.357 7.5-7.5v-14.75h22.455v14.75c0 4.143 3.357 7.5 7.5 7.5s7.5-3.357 7.5-7.5v-14.75h22.455v14.75c0 4.143 3.357 7.5 7.5 7.5s7.5-3.357 7.5-7.5v-14.75h22.455v14.75c0 4.143 3.357 7.5 7.5 7.5s7.5-3.357 7.5-7.5v-14.75h22.454v14.75c0 4.143 3.357 7.5 7.5 7.5s7.5-3.357 7.5-7.5v-14.75h22.455v14.75c0 4.143 3.357 7.5 7.5 7.5s7.5-3.357 7.5-7.5v-14.75h22.455v14.75c0 4.143 3.357 7.5 7.5 7.5s7.5-3.357 7.5-7.5v-14.75h20.238c2.439 0 4.5 2.061 4.5 4.5v31.5h-326.659zm322.16 454.977h-317.66c-2.439 0-4.5-2.061-4.5-4.5v-403.977h326.66v403.977c0 2.439-2.061 4.5-4.5 4.5z" fill="#ff5d56" data-original="#000000"/>
    </g>
  </g>
</svg>
