<?xml version="1.0" encoding="UTF-8"?>
<svg xmlns="http://www.w3.org/2000/svg" xmlns:xlink="http://www.w3.org/1999/xlink" xmlns:svgjs="http://svgjs.com/svgjs" version="1.1" width="512" height="512" x="0" y="0" viewBox="0 0 3873 3873" style="enable-background:new 0 0 512 512" xml:space="preserve" class="">
  <g>
    <g>
      <g>
        <path d="m3489.6 2798.9c-124.7 0-189.9-35.3-247.5-66.5-51.4-27.8-95.9-51.9-189.9-51.9s-138.4 24-189.9 51.9c-57.6 31.2-122.8 66.5-247.5 66.5s-189.9-35.3-247.5-66.5c-51.4-27.8-95.9-51.9-189.8-51.9-94 0-138.4 24-189.8 51.9-57.6 31.2-122.8 66.5-247.5 66.5s-189.9-35.3-247.5-66.5c-51.4-27.8-95.8-51.9-189.8-51.9s-138.4 24-189.8 51.9c-57.6 31.2-122.8 66.5-247.5 66.5s-189.9-35.3-247.5-66.5c-51.4-27.8-95.8-51.9-189.8-51.9-33.4 0-60.5-27.1-60.5-60.5s27.1-60.5 60.5-60.5c124.7 0 189.9 35.3 247.5 66.5 51.4 27.8 95.8 51.9 189.8 51.9s138.4-24 189.8-51.9c57.6-31.2 122.8-66.5 247.5-66.5s189.9 35.3 247.5 66.5c51.4 27.8 95.8 51.9 189.8 51.9s138.4-24 189.8-51.9c57.6-31.2 122.8-66.5 247.5-66.5s189.9 35.3 247.5 66.5c51.4 27.8 95.9 51.9 189.9 51.9s138.4-24 189.9-51.9c57.6-31.2 122.8-66.5 247.5-66.5s189.9 35.3 247.5 66.5c51.4 27.8 95.9 51.9 189.8 51.9 33.4 0 60.5 27.1 60.5 60.5s-27.1 60.5-60.5 60.5z" fill="#ff5d56" data-original="#000000" class=""/>
      </g>
      <g>
        <path d="m3489.6 3099c-124.7 0-189.9-35.3-247.5-66.5-51.4-27.8-95.9-51.9-189.9-51.9s-138.4 24-189.8 51.9c-57.6 31.2-122.8 66.5-247.5 66.5s-189.9-35.3-247.5-66.5c-51.4-27.8-95.8-51.9-189.8-51.9s-138.4 24-189.8 51.9c-57.6 31.2-122.8 66.5-247.5 66.5s-189.9-35.3-247.5-66.5c-51.4-27.8-95.8-51.9-189.8-51.9s-138.4 24-189.8 51.9c-57.6 31.2-122.8 66.5-247.5 66.5s-189.9-35.3-247.5-66.5c-51.4-27.8-95.8-51.9-189.8-51.9-33.4 0-60.5-27.1-60.5-60.5s27.1-60.5 60.5-60.5c124.7 0 189.9 35.3 247.5 66.5 51.4 27.8 95.8 51.9 189.8 51.9s138.4-24 189.8-51.9c57.6-31.2 122.8-66.5 247.5-66.5s189.9 35.3 247.5 66.5c51.4 27.8 95.8 51.9 189.8 51.9s138.4-24 189.8-51.9c57.6-31.2 122.8-66.5 247.5-66.5s189.9 35.3 247.5 66.5c51.4 27.8 95.9 51.9 189.9 51.9s138.4-24 189.8-51.9c57.6-31.2 122.8-66.5 247.5-66.5s189.9 35.3 247.5 66.5c51.4 27.8 95.8 51.9 189.8 51.9 33.4 0 60.5 27.1 60.5 60.5s-27.1 60.5-60.5 60.5z" fill="#ff5d56" data-original="#000000" class=""/>
      </g>
      <g>
        <path d="m3489.6 3399c-124.7 0-189.9-35.3-247.5-66.5-51.4-27.8-95.9-51.9-189.9-51.9s-138.4 24-189.9 51.9c-57.6 31.2-122.8 66.5-247.5 66.5s-189.9-35.3-247.5-66.5c-51.4-27.8-95.9-51.9-189.8-51.9-94 0-138.4 24-189.8 51.9-57.6 31.2-122.8 66.5-247.5 66.5s-189.9-35.3-247.5-66.5c-51.4-27.8-95.8-51.9-189.8-51.9s-138.4 24-189.8 51.9c-57.6 31.2-122.8 66.5-247.5 66.5s-189.9-35.3-247.5-66.5c-51.4-27.8-95.8-51.9-189.8-51.9-33.4 0-60.5-27.1-60.5-60.5s27.1-60.5 60.5-60.5c124.7 0 189.9 35.3 247.5 66.5 51.4 27.8 95.8 51.9 189.8 51.9s138.4-24 189.8-51.9c57.6-31.2 122.8-66.5 247.5-66.5s189.9 35.3 247.5 66.5c51.4 27.8 95.8 51.9 189.8 51.9s138.4-24 189.8-51.9c57.6-31.2 122.8-66.5 247.5-66.5s189.9 35.3 247.5 66.5c51.4 27.8 95.9 51.9 189.9 51.9s138.4-24 189.9-51.9c57.6-31.2 122.8-66.5 247.5-66.5s189.9 35.3 247.5 66.5c51.4 27.8 95.9 51.9 189.8 51.9 33.4 0 60.5 27.1 60.5 60.5s-27.1 60.5-60.5 60.5z" fill="#ff5d56" data-original="#000000" class=""/>
      </g>
      <g>
        <path d="m3489.6 3699c-124.7 0-189.9-35.3-247.5-66.5-51.4-27.8-95.9-51.9-189.9-51.9s-138.4 24-189.8 51.9c-57.6 31.2-122.8 66.5-247.5 66.5s-189.9-35.3-247.5-66.5c-51.4-27.8-95.8-51.9-189.8-51.9s-138.4 24-189.8 51.9c-57.6 31.2-122.8 66.5-247.5 66.5s-189.9-35.3-247.5-66.5c-51.4-27.8-95.8-51.9-189.8-51.9s-138.4 24-189.8 51.9c-57.6 31.2-122.8 66.5-247.5 66.5s-189.9-35.3-247.5-66.5c-51.4-27.8-95.8-51.9-189.8-51.9-33.4 0-60.5-27.1-60.5-60.5s27.1-60.5 60.5-60.5c124.7 0 189.9 35.3 247.5 66.5 51.4 27.8 95.8 51.9 189.8 51.9s138.4-24 189.8-51.9c57.6-31.2 122.8-66.5 247.5-66.5s189.9 35.3 247.5 66.5c51.4 27.8 95.8 51.9 189.8 51.9s138.4-24 189.8-51.9c57.6-31.2 122.8-66.5 247.5-66.5s189.9 35.3 247.5 66.5c51.4 27.8 95.9 51.9 189.9 51.9s138.4-24 189.8-51.9c57.6-31.2 122.8-66.5 247.5-66.5s189.9 35.3 247.5 66.5c51.4 27.8 95.8 51.9 189.8 51.9 33.4 0 60.5 27.1 60.5 60.5s-27.1 60.5-60.5 60.5z" fill="#ff5d56" data-original="#000000" class=""/>
      </g>
      <g>
        <path d="m3375.4 1219.4h-616.3c-144.7 0-262-116.8-262-262 0-142.2 114-258.4 255.4-261.9 41.6-55.2 109.4-87.9 182.6-82.4 46-79.5 131.2-130.9 226.9-130.9 129.2 0 236.8 94 258.2 217.2 123.2 21.3 217.2 129 217.2 258.2 0 144.3-117.6 261.8-262 261.8zm-616.3-402.9c-87.9 0-154.5 80.1-138.8 166 12 67.1 70.3 115.9 138.8 115.9h616.3c77.7 0 141-63.2 141-141 0-77.4-62.8-140.5-140.1-141l-11.2.3c-34.9 1-63.4-27.5-62.4-62.4l.4-11.2c-.7-101.4-105.3-168.4-196.7-128.7-37.4 16.1-65.9 47.5-78.4 86.1-10.7 32.9-46.5 50-78.5 38.2-42.7-15.8-90.3 4.2-109.5 44.7-11.2 23.7-36.4 37.4-62.4 34-6.2-.5-12.4-.9-18.5-.9z" fill="#ff5d56" data-original="#000000" class=""/>
      </g>
      <g>
        <path d="m1113.9 911.3h-616.3c-144.5 0-262-117.5-262-262 0-129.2 94-236.8 217.2-258.2 28.7-165.9 206.2-262.7 361.8-195.8 52.3 22.5 95.3 61.2 123.2 109.6 70.4-5.3 139.3 25 182.6 82.4 158.4 3.9 279.7 148.4 251.3 308.1-22.2 125.2-130.7 215.9-257.8 215.9zm-617.2-403c-77.3.5-140.1 63.5-140.1 141 0 77.7 63.2 141 141 141h616.3c77.6 0 141-62.5 141-141 0-84.9-74.8-150.9-159.4-139.8-26 3.4-51.2-10.4-62.4-34-19.4-40.6-67-60.5-109.5-44.7-32 11.8-67.8-5.2-78.5-38.2-18.4-56.8-71.5-97.5-134.2-97.5-77.4 0-140.5 62.8-141 140.1l.3 11.2c1 34.9-27.5 63.4-62.4 62.4z" fill="#ff5d56" data-original="#000000" class=""/>
      </g>
      <g>
        <g>
          <path d="m2378.8 2737.9c-27-19.7-33-57.5-13.3-84.5 62.8-86.2 95.9-188.3 95.9-295.4 0-277-225.4-502.4-502.4-502.4s-502.4 225.4-502.4 502.4c0 95.6 26.9 188.6 77.9 268.8 17.9 28.2 9.6 65.6-18.7 83.5-28.2 17.9-65.6 9.6-83.5-18.7-206.3-324.9-70.5-758.1 283.9-908.1 230.8-97.5 502.1-48.2 683.5 133.6 217.7 217.7 243.3 560.2 63.5 807.4-19.3 26.9-56.9 33.3-84.4 13.4z" fill="#ff5d56" data-original="#000000" class=""/>
        </g>
        <g>
          <path d="m1959 1516.2c-33.4 0-60.5-27.1-60.5-60.5v-296.8c0-33.4 27.1-60.5 60.5-60.5s60.5 27.1 60.5 60.5v296.8c.1 33.5-27 60.5-60.5 60.5z" fill="#ff5d56" data-original="#000000" class=""/>
        </g>
        <g>
          <path d="m2597 1780.5c-53.5 0-81-65-42.8-103.3l209.9-209.9c23.6-23.6 61.9-23.6 85.6 0 23.6 23.6 23.6 61.9 0 85.6l-209.9 209.9c-11.8 11.8-27.3 17.7-42.8 17.7z" fill="#ff5d56" data-original="#000000" class=""/>
        </g>
        <g>
          <path d="m3158.1 2418.5h-296.8c-33.4 0-60.5-27.1-60.5-60.5s27.1-60.5 60.5-60.5h296.8c33.4 0 60.5 27.1 60.5 60.5s-27.1 60.5-60.5 60.5z" fill="#ff5d56" data-original="#000000" class=""/>
        </g>
        <g>
          <path d="m1056.8 2418.5h-296.8c-33.4 0-60.5-27.1-60.5-60.5s27.1-60.5 60.5-60.5h296.8c33.4 0 60.5 27.1 60.5 60.5s-27.1 60.5-60.5 60.5z" fill="#ff5d56" data-original="#000000" class=""/>
        </g>
        <g>
          <path d="m1278.3 1762.8-209.9-209.9c-23.6-23.6-23.6-61.9 0-85.6s61.9-23.6 85.6 0l209.9 209.9c23.6 23.6 23.6 61.9 0 85.6-23.9 23.7-62.2 23.4-85.6 0z" fill="#ff5d56" data-original="#000000" class=""/>
        </g>
      </g>
    </g>
  </g>
</svg>
