<svg xmlns="http://www.w3.org/2000/svg" viewBox="0 0 918.74 1158.2"><defs><style>.cls-1{fill:#ff5d56;}</style></defs><g id="Layer_2" data-name="Layer 2"><g id="Layer_1-2" data-name="Layer 1"><path class="cls-1" d="M378.15,1050.2l.3.9c-38.2-33.6-62.3-79.9-88.5-123.5s-57.3-87.3-102.9-109.8c-6.6-3.3-14.2-6.1-21.2-3.9h-.1c-46.9,14.6-34.7-39.1-18.7-67.6,7.5-13.4,18.8-28,34.1-27,11.9.8,20.7,10.8,28,20.2A1100.89,1100.89,0,0,1,378.15,1050.2Z"/><path class="cls-1" d="M592.15,476.2c-3.7-12.4-12.9-22.3-22.8-30.6-29.8-23.7-67.6-40.8-106-41.8-17.1-.2-55.9,11.6-46.7,34.4,7.5,7.8,18.5,11.7,28.1,16.3,0,11.5,3.6,11.4,13.4,9.8,5,.7,6.7,7.1,10.8,10.1s10,2.2,13.2,6.2c1.3,1.9,4.5,4.4,6.3,2,1.3-4.2-8.5-8-8.2-16.1,39.2-2.4,52.4-37.3,67-24.1,14.9,10.4,30.1,21.4,38.8,37.3C589,486.2,594.55,481.5,592.15,476.2Zm-87.4-41.3c-1.1-1.7-9.3-4.2-4.2-6.6C529.35,431.8,517.85,446.5,504.75,434.9Z"/><path class="cls-1" d="M659.25,357.8c-9.8-12.2-25.9-16.9-39.8-24.1-13.7-7.1-26.1-17.1-41-20.8-9.9-2.4-20.3-1.9-30.3-3.9-6.9-1.4-13.4-3.9-20.2-5.7s-13.9-3-20.7-1.6-13.4,5.8-15.8,12.3c-6.6,17.4,16.4,22.6,28.1,25.3,16.7,3.8,33.9,5.5,50.3,10.5,19.9,6,38.5,16.9,58.1,23.1a98.78,98.78,0,0,0,21.6,4.5c4.2.3,8.9.2,11.8-2.9C665.55,370.1,663.15,362.6,659.25,357.8Z"/><path class="cls-1" d="M862.55,553a58.73,58.73,0,0,1-3.4,32.1c-1.4,3.3-3.1,6.7-5.9,9-1.9,1.6-4.7,2.6-6.8,1.3-1.4-.9-1.9-2.6-2.8-4-2.1-3.3-5.9-4.9-8.8-7.5a18.41,18.41,0,0,1-6.1-13.1c-.1-6.5,3.3-13.1,1.7-19.4s-7.5-10.1-13.1-13.1a7.88,7.88,0,0,0-3.9-1.3c-2.9.1-4.6,3.1-6,5.7-2.9,5.4-6.6,10.4-11.5,13.9s-11.3,5.4-17.2,4c-8.3-1.9-14.1-9.6-22-12.5-2.3-.9-4.8-1.3-7.1-2.3-6-2.5-8-9.4-7.2-15.5a12.52,12.52,0,0,1,5.5-9c2.4-1.4,5.2-1.7,8-1.9a150.82,150.82,0,0,1,28.5.5c22.1,2.4,44.3,10.1,60.1,25.7,2.5,2.5,4.8,5.1,7.9,6.9S859.55,554.8,862.55,553Zm-73.4-16c.8-.1,2.7.5,3.6-1.6,2.8-4.9-6.4-8-9.7-6.7C778.45,532.7,783.85,538,789.15,537Z"/><path class="cls-1" d="M661,970.7a99,99,0,0,1-28.1,41.4c-3.9,3.4-8.5,6.7-13.7,7.1-6.2.5-11.9-3.2-16.5-7.4-10.1-9.1-14.7-23.7-4.8-35,3.7-4.2,8.7-7.2,13.7-9.7a101.39,101.39,0,0,1,44.3-10.3,8.34,8.34,0,0,1,4.7,1c2.9,2,2.4,6.4,1.3,9.7A16.81,16.81,0,0,1,661,970.7Z"/><path class="cls-1" d="M88.85,837.4a32.39,32.39,0,0,1-8.7,19.3c-7.5,7.9-18.3,11.7-28.7,15-5.6,1.8-54.5,15.9-51.3,2.1.5-2.2,2.3-3.9,4-5.4a356.53,356.53,0,0,1,28.9-23.1c12.8-9.2,26.9-17.6,42.6-19.4,4.2-.5,9.1-.1,11.6,3.3,1.5,2,1.7,4.6,1.6,7.1A4,4,0,0,1,88.85,837.4Z"/><path class="cls-1" d="M890.55,467.8a71.4,71.4,0,0,0-25.8-29.2c-.3-.2-.5-.3-.8-.5a75,75,0,0,0-38.3-11.2c-9.4-.1-18.9,1.5-28.2-.2a32.1,32.1,0,0,0-6.1-.9,7.05,7.05,0,0,0-5.5,2.4c-6.6,8.8,22.7,20.6,27.9,22.8,23.3,9.9,47.7,17.3,72.8,21,1.6.2,3.8.2,4.4-1.4A2.88,2.88,0,0,0,890.55,467.8Z"/><path class="cls-1" d="M384.05,998.5a292.42,292.42,0,0,0,102.8,70.5c-24.4-8.5-50.4-12.8-73.9-23.7-13.6-6.3-26.4-15.1-35.9-26.8-3.3-4-23.1-36.6-8.1-33.7,3.4.7,5.9,3.5,8.2,6.1S381.75,996,384.05,998.5Z"/><path class="cls-1" d="M101.75,296.9c1.6-5.9,3.3-11.7,5.1-17.5.7-2.3,2-5,4.4-5a4.49,4.49,0,0,1,3.4,2.1c1.4,2.1,1.8,4.8,2,7.4,2.5,28-.6,56.2-4.9,84a116.52,116.52,0,0,1-2.8,14.3,11.32,11.32,0,0,1-2.2,4.7c-4.7,5.4-11.1-2.3-12.7-6.5a35.17,35.17,0,0,1-1.8-11.6C91.45,344.6,95.45,320.4,101.75,296.9Z"/><path class="cls-1" d="M584.05,1088.2c-11.3,22.3-22.5,44.7-33.8,67-.7,1.4-1.8,3.1-3.4,3s-2.5-1.6-3.1-3.1c-3.9-9.7-2.8-20.8,1.4-30.4a66.41,66.41,0,0,1,16.5-22.1C567.75,1097.3,580.15,1095.8,584.05,1088.2Z"/><path class="cls-1" d="M914.05,412.2c-7,18.3-8,38.2-7.8,57.8.1,7.9.2,16.3-4,23-.3.5-5.8-16.1-6-17.5a74.63,74.63,0,0,1,1.9-26.2C901.25,436.1,907.35,423.9,914.05,412.2Z"/><path class="cls-1" d="M145.35,599.3c-1.6,1.8-5.5.9-7.6,2.6a2.64,2.64,0,0,1-4-2.5c0-5.4-2.3-10.4-2.3-15.8a4.69,4.69,0,0,0-.5-2.7c-4.2-4.9-2.8-10.9-3.5-16.4-.3-2.4,2.1-4.7,3.1-6.7,1.7-3.7,3.7-11.1,9.1-9.1,2.4,1.4,2.3,4.8,1.8,7.2,1.3,9.4-.5,18.9,1.9,28.2C144.65,593.6,137.35,586.5,145.35,599.3Z"/><path class="cls-1" d="M669.45,718.7c-.2.1-.4.3-.6.4-5.6,2.9-12.5.1-17.5-3.7s-9.5-8.8-15.5-10.8c-1.9-.6-20.1-4.6-11.5-6.5a48.54,48.54,0,0,1,44.7,13.6c1.4,1.5,2.8,3.5,2,5.3A3.75,3.75,0,0,1,669.45,718.7Z"/><path class="cls-1" d="M505.75,821.9a46.65,46.65,0,0,1-23.5-16.2c-.4-.5-.7-1.1-.3-1.6.2-.3.7-.3,1.1-.3a41.16,41.16,0,0,1,18.6,4.5c3.3,1.7,14.6,7.7,10.9,13-1.2,1.7-3.8,1.5-5.8.9A2.24,2.24,0,0,0,505.75,821.9Z"/><path class="cls-1" d="M114,589.3a1.6,1.6,0,0,1,1.7,1.2c.6,4.8,8.9,9.2,3.9,13.9C115.05,606.1,110.75,591,114,589.3Z"/><path class="cls-1" d="M475.85,479.1c-.2.5-.5.1-.7-.1C475.25,478.5,475.55,478.9,475.85,479.1Z"/><path class="cls-1" d="M481.15,482.8l-.2.2S481.35,482.9,481.15,482.8Z"/><path class="cls-1" d="M911,682l.2-.2C911.25,681.8,911.05,682,911,682Z"/><path class="cls-1" d="M789.15,537c-5.3,1-10.7-4.3-6.1-8.3,3.3-1.3,12.5,1.8,9.7,6.7C791.85,537.5,789.85,536.9,789.15,537Z"/><path class="cls-1" d="M918.55,240a109.05,109.05,0,0,1-4.6,39.3c-2-47.9-33.3-90.8-72.4-118.5-36.1-25.7-96.1-32.2-125.9-60,6.7-9,122.8-96.5,118.4-100.8,21.7,21.2,24,54.4,31.7,83.7,8.8,33.1,25.7,63.4,38.2,95.3C911.55,198.5,917.45,219.3,918.55,240Z"/></g></g></svg>